<?xml version="1.0" encoding="utf-8"?>
<!-- Generator: Adobe Illustrator 22.0.1, SVG Export Plug-In . SVG Version: 6.00 Build 0)  -->
<svg version="1.1" id="Layer_1" xmlns="http://www.w3.org/2000/svg" x="0px" y="0px"
	 viewBox="0 0 500 500" style="enable-background:new 0 0 500 500;" xml:space="preserve">
<style type="text/css">
	.st0{fill:url(#SVGID_1_);}
	.st1{fill:url(#SVGID_2_);}
	.st2{fill:url(#SVGID_3_);}
	.st3{fill:url(#SVGID_4_);}
	.st4{opacity:0.5;fill:url(#SVGID_5_);}
	.st5{fill:url(#SVGID_6_);}
	.st6{fill:url(#SVGID_7_);}
	.st7{fill:url(#SVGID_8_);}
</style>
<g>
	<linearGradient id="SVGID_1_" gradientUnits="userSpaceOnUse" x1="82.6111" y1="-82.6111" x2="582.6111" y2="417.3889">
		<stop  offset="0" style="stop-color:#8AA2E9"/>
		<stop  offset="1" style="stop-color:#3F88C5"/>
	</linearGradient>
	<path class="st0" d="M267.8,102c-0.4-0.1-0.9-0.1-1.3,0c0.5,0,1.1,0.1,1.6,0.1C268,102.1,267.9,102.1,267.8,102z"/>
	<linearGradient id="SVGID_2_" gradientUnits="userSpaceOnUse" x1="74.0356" y1="-74.0356" x2="574.0356" y2="425.9644">
		<stop  offset="0" style="stop-color:#8AA2E9"/>
		<stop  offset="1" style="stop-color:#3F88C5"/>
	</linearGradient>
	<path class="st1" d="M265.6,118c0.4,0.1,0.8,0.1,1.2,0c-0.5,0-1-0.1-1.5-0.1C265.4,118,265.5,118,265.6,118z"/>
	<linearGradient id="SVGID_3_" gradientUnits="userSpaceOnUse" x1="-2.4889" y1="2.4889" x2="497.5111" y2="502.4889">
		<stop  offset="0" style="stop-color:#8AA2E9"/>
		<stop  offset="1" style="stop-color:#3F88C5"/>
	</linearGradient>
	<path class="st2" d="M164.9,170.2c-0.1,0.3-0.1,0.5-0.2,0.8c0.2-0.7,0.4-1.3,0.6-2C165.2,169.4,165,169.8,164.9,170.2z"/>
	<linearGradient id="SVGID_4_" gradientUnits="userSpaceOnUse" x1="2.21" y1="-2.21" x2="502.21" y2="497.79">
		<stop  offset="0" style="stop-color:#8AA2E9"/>
		<stop  offset="1" style="stop-color:#3F88C5"/>
	</linearGradient>
	<path class="st3" d="M179.2,174.1c-0.1,0.3-0.2,0.6-0.3,0.9c0.1-0.2,0.2-0.5,0.3-0.7C179.2,174.3,179.2,174.2,179.2,174.1z"/>
	<linearGradient id="SVGID_5_" gradientUnits="userSpaceOnUse" x1="39.4572" y1="-39.4572" x2="539.4572" y2="460.5428">
		<stop  offset="0" style="stop-color:#8AA2E9"/>
		<stop  offset="1" style="stop-color:#3F88C5"/>
	</linearGradient>
	<path class="st4" d="M263.1,97.1c-0.5,0-1.1-0.1-1.6-0.1c-2.1-0.1-4.3-0.2-6.5-0.2c-32.7,0-58.1,11.1-76.3,33.3
		c-7.8,9.5-13.9,20.8-18.4,33.9c-0.2,0.7-0.4,1.3-0.6,2c-0.4,3.2,1.9,6.4,5.5,7.5c3.6,1,7.3-0.5,8.6-3.4c0.1-0.3,0.2-0.6,0.3-0.9
		c3.7-10.2,8.5-19.1,14.6-26.8c15.6-19.7,37.4-29.6,65.5-29.6c2.1,0,4.1,0.1,6.2,0.2c0.5,0,1,0.1,1.5,0.1c3.4-0.2,6.3-3.1,6.8-7.1
		C269.3,101.7,266.8,97.8,263.1,97.1z"/>
	<linearGradient id="SVGID_6_" gradientUnits="userSpaceOnUse" x1="14.3316" y1="-14.3316" x2="514.3316" y2="485.6684">
		<stop  offset="0" style="stop-color:#8AA2E9"/>
		<stop  offset="1" style="stop-color:#3F88C5"/>
	</linearGradient>
	<path class="st5" d="M381.5,446.4c3.7,6,5.5,11.8,5.5,17.5c0,7.7-3,13.9-9,18.8c-6,4.8-13,7.3-21,7.3c-6,0-11.7-1.4-17-4.3
		c-5.3-2.8-9.7-7.1-13-12.8l-29.5-48.5c-4.7-7.7-10.8-13.3-18.3-17c-7.5-3.7-17.3-5.5-29.3-5.5c-34.3,0-64.1-7.3-89.3-22
		c-25.2-14.7-44.6-35.7-58.3-63c-13.7-27.3-20.5-59.3-20.5-96c0-36.7,6.8-68.6,20.5-95.8c13.7-27.2,33.1-48.1,58.3-62.8
		c25.2-14.7,54.9-22,89.3-22c34,0,63.6,7.3,88.8,22c25.2,14.7,44.6,35.6,58.3,62.8c13.7,27.2,20.5,59.1,20.5,95.8
		c0,39.7-7.9,73.8-23.8,102.3c-15.8,28.5-38.4,49.3-67.8,62.3c15.3,5.3,28,16.3,38,33L381.5,446.4z M325.8,316.9
		c18.2-22.3,27.3-54.3,27.3-96c0-41.7-9.1-73.6-27.3-95.8c-18.2-22.2-43.4-33.3-75.8-33.3c-32.7,0-58.1,11.1-76.3,33.3
		c-18.2,22.2-27.3,54.1-27.3,95.8c0,41.7,9.1,73.7,27.3,96c18.2,22.3,43.6,33.5,76.3,33.5C282.3,350.4,307.6,339.2,325.8,316.9z"/>
	<g>
		<linearGradient id="SVGID_7_" gradientUnits="userSpaceOnUse" x1="-23.0184" y1="23.0184" x2="476.9816" y2="523.0184">
			<stop  offset="0" style="stop-color:#8AA2E9"/>
			<stop  offset="1" style="stop-color:#3F88C5"/>
		</linearGradient>
		<path class="st6" d="M247,275c4.7-4.1,8-8,8-8c1.5-1.8,1.7-2.2,4.1-5.2c2.3-2.9,4.3-5.4,6.7-7.9c3.6-3.6,6.9-6,9.1-7.4
			c-15.4-23.2-41.1-38.5-70.2-38.5c-12.8,0-22.2,3-24.8,3.8c-11.8,4-20.1,10.1-24.9,14.2c0.2,10.1,1.3,22.8,4.8,37
			c2.8,11.8,6.6,21.9,10.2,30c4.2,1,9.1,1.9,14.8,2.3c6.6,0.5,12.4,0.2,17.2-0.3C202,295,227.4,291.9,247,275z"/>
		<linearGradient id="SVGID_8_" gradientUnits="userSpaceOnUse" x1="-29.2685" y1="-7.394" x2="508.8651" y2="530.7396">
			<stop  offset="0" style="stop-color:#8AA2E9"/>
			<stop  offset="1" style="stop-color:#3F88C5"/>
		</linearGradient>
		<path class="st7" d="M308.6,245c-8.9,0-15.8,2.1-17.4,2.6c-5.5,1.7-10.6,4.1-15.3,7.2l0,0c-6.6,4.3-12.2,9.9-16.5,16.5
			c-15.4,19.1-39.2,31.4-66,31.4c-7.1,0-13.9-0.9-20.5-2.5c-0.2,0-0.3-0.1-0.5-0.1c2.5,4.4,5.4,8.5,8.5,12.2
			c16.5,19.8,39.5,29.7,69.1,29.7c21,0,38.7-5.1,53.1-15.2c8.1-5.7,13.7-12.2,15.6-14.5c8.4-10,12.5-19.4,15.5-26.3
			c3.1-7.3,6.8-17.8,8.8-31.1C328.1,247,315,245,308.6,245z M288.1,327.7c1.3-4.8,2.1-9.9,2.5-15
			C290.3,317.8,289.4,322.9,288.1,327.7z"/>
	</g>
</g>
</svg>
